<svg xmlns="http://www.w3.org/2000/svg" xmlns:xlink="http://www.w3.org/1999/xlink" version="1.1" x="0px" y="0px" viewBox="0 0 139 173.75" enable-background="new 0 0 139 139" xml:space="preserve">

<path fill="#ffffff" d="M69.5,12.665c-31.94,0-57.833,25.894-57.833,57.834c0,31.939,25.893,57.835,57.833,57.835s57.835-25.896,57.835-57.835  C127.335,38.559,101.44,12.665,69.5,12.665z M91.317,92.542c-2.309,2.307-6.05,2.307-8.357,0L69.8,79.382L56.041,93.141  c-2.308,2.307-6.049,2.307-8.356,0c-2.309-2.31-2.309-6.05,0-8.359l13.758-13.758l-12.81-12.809c-2.307-2.31-2.307-6.05,0-8.358  c2.308-2.308,6.05-2.308,8.358,0L69.8,62.666l12.211-12.212c2.308-2.307,6.051-2.308,8.357,0c2.309,2.31,2.309,6.052,0,8.358  l-12.21,12.211l13.159,13.16C93.625,86.49,93.626,90.233,91.317,92.542z"/>





</svg>