<svg xmlns="http://www.w3.org/2000/svg" xmlns:xlink="http://www.w3.org/1999/xlink" version="1.1" x="0px" y="0px" viewBox="0 0 100 125" enable-background="new 0 0 100 100" xml:space="preserve">
<path fill="#404e43" d="M95.176,59.523l0.355-0.609c0.051-0.086,0.088-0.18,0.109-0.277l0.152-0.66  c0.018-0.074,0.025-0.15,0.025-0.225V46.685c0-0.093-0.012-0.185-0.037-0.273l-0.203-0.71c-0.037-0.133-0.102-0.255-0.189-0.361  l-0.459-0.559c-0.045-0.056-0.098-0.106-0.154-0.151l-0.709-0.559c-0.059-0.046-0.123-0.086-0.191-0.118l-0.861-0.406  c-0.035-0.017-0.07-0.03-0.107-0.043l-66.504-22.49c-0.025-0.009-0.051-0.017-0.078-0.023l-1.014-0.253  c-0.051-0.013-0.104-0.021-0.154-0.025l-1.17-0.103c-0.029-0.003-0.059-0.004-0.088-0.004c-0.047,0-0.094,0.003-0.143,0.01  l-1.066,0.153c-0.033,0.005-0.068,0.012-0.102,0.021l-1.014,0.254c-0.086,0.021-0.17,0.055-0.248,0.099l-0.811,0.456  c-0.041,0.022-0.08,0.049-0.119,0.078l-0.66,0.508c-0.051,0.038-0.096,0.081-0.137,0.128L3.355,40.537  c-0.053,0.059-0.098,0.123-0.135,0.192l-0.355,0.66c-0.041,0.077-0.072,0.159-0.092,0.245l-0.154,0.66  c-0.018,0.074-0.027,0.151-0.027,0.228v0.406V53.59c0,0.1,0.016,0.197,0.045,0.293l0.201,0.66c0.031,0.1,0.076,0.193,0.137,0.277  l0.459,0.66c0.051,0.072,0.111,0.139,0.18,0.195l0.607,0.508c0.072,0.061,0.15,0.109,0.236,0.146l0.914,0.406  c0.027,0.014,0.057,0.023,0.086,0.033l66.551,22.49c0.027,0.008,0.053,0.016,0.08,0.023l1.016,0.252  c0.062,0.016,0.127,0.025,0.191,0.029l1.066,0.053c0.016,0,0.033,0,0.049,0c0.031,0,0.062,0,0.092-0.004l1.119-0.104  c0.051-0.004,0.1-0.014,0.15-0.025l1.016-0.252c0.078-0.021,0.154-0.051,0.227-0.088l0.859-0.457  c0.049-0.025,0.096-0.057,0.139-0.09l0.662-0.506c0.051-0.039,0.098-0.082,0.141-0.131l16.244-18.275  C95.104,59.635,95.143,59.582,95.176,59.523z M17.785,41.723l-0.406,0.566l-0.621,0.579l-0.898,0.449l-1.031,0.234l-1.193,0.144  l-1.184-0.095l-1.084-0.235l-0.918-0.413l-0.707-0.53l-0.408-0.571l-0.148-0.595l0.15-0.562l0.367-0.573l0.666-0.531l0.869-0.457  l1.033-0.282l1.18-0.142l1.17,0.094l1.037,0.283l0.934,0.42l0.758,0.532l0.395,0.555l0.115,0.576L17.785,41.723z M43.672,34.482  l0.352-0.509l0.668-0.579l0.855-0.45l1.029-0.233l1.197-0.145l1.184,0.048l1.07,0.278l0.928,0.419l0.705,0.53l0.408,0.567  l0.154,0.614l-0.113,0.568l-0.322,0.562L51.1,36.711l-0.92,0.414l-1.047,0.286l-1.178,0.142l-1.129-0.094l-1.08-0.282l-0.928-0.418  l-0.709-0.531l-0.4-0.56l-0.113-0.576L43.672,34.482z M34.941,38.649l-0.357,0.595l-0.656,0.524l-0.867,0.455l-1.123,0.281  L30.85,40.6l-1.24-0.097l-1.033-0.234l-0.967-0.414l-0.65-0.521l-0.416-0.579l-0.156-0.582l0.076-0.558l0.355-0.596l0.645-0.515  l0.928-0.417l1.09-0.332l1.072-0.094l1.242,0.096l1.084,0.235l0.91,0.41l0.66,0.527l0.412,0.579l0.152,0.578L34.941,38.649z   M54.742,54.225l-0.359,0.557l-0.654,0.566l-0.867,0.412l-1.137,0.332l-1.076,0.094l-1.24-0.096l-1.082-0.236l-0.91-0.41  l-0.66-0.527l-0.414-0.58l-0.156-0.578l0.074-0.557l0.359-0.598l0.65-0.52l0.922-0.461l1.072-0.281l1.09-0.094l1.24,0.096  l1.082,0.234l0.912,0.41l0.658,0.525l0.416,0.582l0.152,0.576L54.742,54.225z M57.727,35.747L41.432,54.125  c-0.098,0.111-0.236,0.168-0.373,0.168c-0.119,0-0.236-0.041-0.332-0.127c-0.207-0.184-0.227-0.498-0.043-0.705l16.295-18.378  c0.184-0.208,0.5-0.226,0.707-0.042C57.891,35.224,57.91,35.54,57.727,35.747z M71.91,51.154l-0.408,0.57l-0.619,0.531l-0.916,0.457  l-1.025,0.281l-1.184,0.094l-1.145-0.047l-1.068-0.279l-0.93-0.418l-0.707-0.529L63.5,51.242l-0.15-0.564l0.109-0.553l0.369-0.572  l0.654-0.567l0.863-0.409l1.041-0.284l1.182-0.141l1.184,0.094l1.086,0.235l0.918,0.414l0.697,0.524l0.416,0.625l0.152,0.523  L71.91,51.154z M89.057,48.084l-0.35,0.544l-0.664,0.531l-0.869,0.458l-1.021,0.279l-1.186,0.095l-1.193-0.048l-1.07-0.278  l-0.928-0.418l-0.707-0.53l-0.41-0.575l-0.148-0.56l0.113-0.562l0.369-0.617l0.6-0.516l0.918-0.458l1.072-0.28l1.184-0.095  l1.148,0.096l1.123,0.234l0.914,0.457l0.613,0.483l0.414,0.576l0.154,0.581L89.057,48.084z"/>

</svg>