<svg xmlns="http://www.w3.org/2000/svg" fill="#ffffff" viewBox="0 0 100 100" >
  <g>
    <path d="M39.425,13c-4.95,0-9,4.05-9,9v56c0,4.95,4.05,9,9,9h21.15c4.95,0,9-4.05,9-9V22c0-4.95-4.05-9-9-9H39.425z M57,50.553   C56.45,50.799,53.3,51,50,51s-6.45-0.201-7-0.447c0,0,0,0,0-0.553s0-0.553,0-0.553C43.55,49.201,46.7,49,50,49s6.45,0.201,7,0.447   c0,0,0,0,0,0.553S57,50.553,57,50.553z M56,76c0-1.656,1.344-3,3-3s3,1.344,3,3s-1.344,3-3,3S56,77.656,56,76z M56,58   c0-1.656,1.344-3,3-3s3,1.344,3,3s-1.344,3-3,3S56,59.656,56,58z M38,76c0-1.656,1.344-3,3-3s3,1.344,3,3s-1.344,3-3,3   S38,77.656,38,76z M38,58c0-1.656,1.344-3,3-3s3,1.344,3,3s-1.344,3-3,3S38,59.656,38,58z M56,41.999c0-1.657,1.344-3,3-3   s3,1.343,3,3c0,1.656-1.344,3-3,3S56,43.655,56,41.999z M56,23.999c0-1.657,1.344-3,3-3s3,1.343,3,3c0,1.656-1.344,3-3,3   S56,25.655,56,23.999z M38,41.999c0-1.657,1.344-3,3-3s3,1.343,3,3c0,1.656-1.344,3-3,3S38,43.655,38,41.999z M47,67   c0-1.656,1.344-3,3-3s3,1.344,3,3s-1.344,3-3,3S47,68.656,47,67z M38,23.999c0-1.657,1.344-3,3-3s3,1.343,3,3c0,1.656-1.344,3-3,3   S38,25.655,38,23.999z"/>
  </g>
</svg>